<?xml version="1.0" encoding="UTF-8" standalone="no"?>
<!-- Created with Inkscape (http://www.inkscape.org/) -->

<svg
   width="64.893188mm"
   height="17.005163mm"
   viewBox="0 0 64.893188 17.005163"
   version="1.1"
   id="svg5"
   xml:space="preserve"
   inkscape:version="1.2.2 (b0a8486541, 2022-12-01)"
   sodipodi:docname="PoGo-Logo.svg"
   xmlns:inkscape="http://www.inkscape.org/namespaces/inkscape"
   xmlns:sodipodi="http://sodipodi.sourceforge.net/DTD/sodipodi-0.dtd"
   xmlns="http://www.w3.org/2000/svg"
   xmlns:svg="http://www.w3.org/2000/svg"><sodipodi:namedview
     id="namedview7"
     pagecolor="#ffffff"
     bordercolor="#666666"
     borderopacity="1.0"
     inkscape:showpageshadow="2"
     inkscape:pageopacity="0.0"
     inkscape:pagecheckerboard="0"
     inkscape:deskcolor="#d1d1d1"
     inkscape:document-units="mm"
     showgrid="false"
     inkscape:zoom="0.914906"
     inkscape:cx="362.3323"
     inkscape:cy="294.01927"
     inkscape:window-width="2560"
     inkscape:window-height="1341"
     inkscape:window-x="0"
     inkscape:window-y="0"
     inkscape:window-maximized="1"
     inkscape:current-layer="layer1" /><defs
     id="defs2" /><g
     inkscape:label="Ebene 1"
     inkscape:groupmode="layer"
     id="layer1"
     transform="translate(-36.940898,-39.565027)"><path
       id="path302"
       style="fill:#000000;stroke-width:0.0778724"
       d="m 58.307552,39.565027 a 8.5025892,8.5025892 0 0 0 -8.502323,8.502323 8.5025892,8.5025892 0 0 0 8.502323,8.50284 8.5025892,8.5025892 0 0 0 8.50284,-8.50284 8.5025892,8.5025892 0 0 0 -8.50284,-8.502323 z m 18.231445,0.01085 -1.012341,0.04444 -1.012341,0.04496 -0.59738,0.155546 -0.597896,0.155546 -0.570508,0.238229 -0.569991,0.237711 -0.594279,0.380856 -0.594279,0.381372 -0.603581,0.573091 -0.60358,0.573092 -0.340548,0.44235 -0.340031,0.441834 -0.314193,0.582393 -0.314192,0.581877 -0.22531,0.618567 -0.225826,0.61805 -0.115755,0.615983 -0.116272,0.615983 -0.05219,0.622701 -0.05271,0.623218 0.08733,0.778763 0.08733,0.778764 0.167432,0.622701 0.167432,0.623218 0.174149,0.444934 0.17415,0.445451 0.376721,0.643888 0.376721,0.643889 0.727088,0.755509 0.727604,0.75551 0.557588,0.384472 0.557589,0.383956 0.545187,0.271818 0.544669,0.271301 0.506429,0.165365 0.505912,0.165365 0.623218,0.116272 0.622701,0.116271 1.168404,-0.02945 1.167888,-0.02894 0.583943,-0.157096 0.584461,-0.157097 0.698665,-0.294038 0.698666,-0.294039 0.702799,-0.469739 0.703316,-0.469739 0.588078,-0.586011 0.588078,-0.58601 0.304891,-0.467155 0.305408,-0.467155 0.256315,-0.506429 0.256315,-0.505913 0.22841,-0.707967 0.227893,-0.70745 0.05323,-0.402043 0.05374,-0.402042 H 93.00931 V 47.461702 H 76.1106 v 1.791106 h 6.459554 l -0.04547,0.253214 -0.04496,0.252698 -0.215491,0.640788 -0.21549,0.641304 -0.323495,0.54467 -0.324011,0.544669 -0.439767,0.475424 -0.439766,0.474906 -0.485242,0.346232 -0.485241,0.346232 -0.594796,0.274919 -0.595313,0.274918 -0.599446,0.161231 -0.599447,0.16123 -1.012341,0.0072 -1.012341,0.0072 -0.545187,-0.14211 -0.545186,-0.142627 -0.636654,-0.295073 -0.636137,-0.295072 -0.355017,-0.243913 -0.355017,-0.243913 -0.47439,-0.439766 -0.474906,-0.439767 -0.346232,-0.485241 -0.346232,-0.484725 -0.261483,-0.572058 -0.261483,-0.571542 -0.145727,-0.545186 -0.145211,-0.54467 0.0067,-1.207161 0.0067,-1.207162 0.211357,-0.696081 0.211356,-0.696082 0.361735,-0.705383 0.362252,-0.7059 0.743624,-0.743624 0.743624,-0.743624 0.706417,-0.362252 0.7059,-0.362251 0.617533,-0.179318 0.61805,-0.1788 1.12913,0.0057 1.12913,0.0057 0.661975,0.174666 0.661975,0.17415 0.622701,0.30024 0.623218,0.299723 0.505912,0.386023 0.506429,0.386023 0.467155,0.49661 0.467672,0.496611 0.202055,0.269751 0.202055,0.269751 0.751892,-0.448551 0.751892,-0.448552 L 83.261068,43.311051 82.935506,42.828394 82.42391,42.290959 81.912313,41.754041 81.289612,41.286886 80.666394,40.819731 79.965662,40.4828 79.264929,40.146387 78.585901,39.9526 77.906873,39.758813 77.222677,39.667346 Z m -39.598099,0.163297 v 16.521989 h 1.946651 v -6.463171 h 4.886007 c 3.14583,-0.05841 4.888073,-2.87112 4.888073,-5.08186 0,-2.210742 -1.283412,-4.912879 -4.517553,-4.912879 z m 1.947168,1.871204 5.25601,0.05426 c 1.865434,0 2.56494,1.528013 2.587438,3.051494 0.0225,1.523479 -0.938488,3.288171 -2.976562,3.288171 l -4.866886,0.0026 z m 19.419486,0.131258 a 6.3258944,6.3258944 0 0 1 6.325712,6.325712 6.3258944,6.3258944 0 0 1 -6.325712,6.326229 6.3258944,6.3258944 0 0 1 -6.325712,-6.326229 6.3258944,6.3258944 0 0 1 6.325712,-6.325712 z" /><path
       id="circle508"
       style="fill:#000000;stroke-width:0.585492;stroke-linecap:round;stroke-linejoin:round"
       d="m 93.331771,39.565027 a 8.5025892,8.5025892 0 0 0 -8.50284,8.502323 8.5025892,8.5025892 0 0 0 8.50284,8.50284 8.5025892,8.5025892 0 0 0 8.502319,-8.50284 8.5025892,8.5025892 0 0 0 -8.502319,-8.502323 z m 0,2.176611 a 6.3258944,6.3258944 0 0 1 6.325712,6.325712 6.3258944,6.3258944 0 0 1 -6.325712,6.326229 6.3258944,6.3258944 0 0 1 -6.326229,-6.326229 6.3258944,6.3258944 0 0 1 6.326229,-6.325712 z" /><circle
       style="fill:#5368ea;fill-opacity:1;stroke-width:0.835962;stroke-linecap:round;stroke-linejoin:round"
       id="path562"
       cx="58.307564"
       cy="48.067455"
       r="3.9499021" /></g></svg>
